<?xml version="1.0" encoding="utf-8"?>
<!-- Generator: Adobe Illustrator 19.0.0, SVG Export Plug-In . SVG Version: 6.00 Build 0)  -->
<svg version="1.1" id="Layer_1" xmlns="http://www.w3.org/2000/svg" xmlns:xlink="http://www.w3.org/1999/xlink" x="0px" y="0px"
	 viewBox="-75 0 48.4 65" style="enable-background:new -75 0 48.4 65;" xml:space="preserve">
<style type="text/css">
	.st0{fill:#0F86D2;}
	.st1{fill:#86C2E8;}
</style>
<g>
	<g>
		<path class="st0" d="M-41,57.2c-5,0-10,0-15,0c-4.6,0-9.2,0-13.8,0c0-10.6,0-21.3,0-31.9c0.5-0.2,0.9,0.1,1.2,0.3
			c2.8,1.5,5.8,2,8.8,2c7.2-0.1,12.6,3.3,17.2,8.4c2.5,2.8,4,6,4.6,9.7c0.6,3.9-0.4,7.4-2.4,10.8C-40.5,56.8-40.7,57-41,57.2z"/>
		<path class="st1" d="M-41,57.2c1.2-2.1,2.3-4.2,2.7-6.6c0.8-4.5-0.4-8.6-2.9-12.3c-3.7-5.4-8.7-8.9-15.2-10.3
			c-1.8-0.4-3.7-0.1-5.6-0.3c-2.8-0.3-5.4-1.1-7.8-2.5c0-3.2,0-6.4,0-9.6c1,1.1,2.1,2.2,3.1,3.3c3.7,3.7,8.3,5.8,13.5,5.5
			c8.5-0.4,18.4,6.7,21.2,15c1.9,5.7,0.6,10.7-2.8,15.4c-1.3,1.8-2.8,2.8-5.1,2.4C-40.3,57.1-40.6,57.2-41,57.2z"/>
	</g>
</g>
</svg>
