<?xml version="1.0" encoding="utf-8"?>
<!-- Generator: Adobe Illustrator 19.0.0, SVG Export Plug-In . SVG Version: 6.00 Build 0)  -->
<svg version="1.1" id="Layer_1" xmlns="http://www.w3.org/2000/svg" xmlns:xlink="http://www.w3.org/1999/xlink" x="0px" y="0px"
	 viewBox="0 23.5 217.3 19.5" style="enable-background:new 0 23.5 217.3 19.5;" xml:space="preserve">
<style type="text/css">
	.st0{fill:#FEFEFE;}
	.st1{opacity:0.5;fill:#FFFFFF;enable-background:new    ;}
	.st2{display:none;fill:#86C2E8;}
</style>
<path class="st0" d="M108.7,40.2V43H0.1v-2.4c0.2-0.4,0.6-0.8,1-1.1c1.1-1,2.3-1.5,3.8-1.7c1.2-0.1,2.4,0.1,3.5,0.6
	c0.7,0.3,1.3,0.7,1.8,1.2c0.2,0.2,0.3,0.3,0.5,0.5c0.1,0.1,0.1,0.1,0.2,0.2c0.2,0.2,0.4,0.5,0.5,0.8c0.1,0.1,0.1,0.1,0.1,0.2
	c0.1,0.1,0.1,0.1,0.2,0.1c0.3-0.2,0.6-0.4,1-0.5c0.4-0.2,0.9-0.3,1.4-0.3c0.1,0,0.1,0,0.1,0c0.1,0,0.2,0,0.3,0c0.2,0,0.3,0,0.4,0.1
	c0.1,0,0.1,0,0.2,0c0.1,0,0.2,0.1,0.2,0.1s0.1,0,0.1,0c0.1,0,0.2,0.1,0.3,0.1c0.7,0.2,1.3,0.6,1.7,1.1c0.1-0.3,0.3-0.6,0.4-0.9
	c0.7-0.9,1.7-1.4,2.8-1c0.3,0.1,0.5,0.2,0.8,0.4c0.1,0.1,0.2,0.1,0.2,0.2c0.1,0.1,0.1,0.1,0.2,0.2c0.1,0.1,0.1,0.2,0.2,0.2
	c0.1,0.1,0.1,0.2,0.2,0.3c0.1,0.2,0.2,0.4,0.3,0.7c0,0.1,0.1,0.2,0.1,0.3V42c0,0.1,0.1,0.2,0.1,0.3c0,0.1,0,0.1,0.1,0.1
	c0,0,0.1,0,0.1-0.1c0.5-0.3,1-0.5,1.5-0.5c0.4-0.1,0.9,0.1,1.3,0.2c0.3,0.1,0.3,0.1,0.4-0.2c1-2,2.6-3.2,4.8-3.5
	c0.9-0.1,1.8-0.1,2.6,0.2c0.1,0,0.1,0,0.1,0c0.1,0,0.2,0.1,0.2,0.1c0.6,0.2,1.2,0.5,1.7,1c0.3,0.3,0.6,0.5,0.8,0.8
	c0.1,0.1,0.1,0.1,0.1,0.1s0.1,0,0.2-0.1c0.4-0.7,1-1.1,1.7-1.3c0.8-0.2,1.6-0.1,2.2,0.3l0,0c0.2,0.1,0.4,0.3,0.6,0.4
	C41,39.9,41,40,41.1,40c0.1,0.1,0.2,0.2,0.3,0.3c0.1,0.1,0.1,0.1,0.1,0.2c0,0.1,0.1,0.1,0.1,0.1c0,0,0.1,0,0.1-0.1
	c0.7-0.8,1.5-1.3,2.6-1.3c0.8-0.1,1.5,0.2,2.2,0.7l0.1,0.1c0.1,0.1,0.1,0.1,0.1,0.1c0.2,0.2,0.4,0.4,0.5,0.7
	c0.1,0.2,0.1,0.2,0.2,0.2c0,0,0.1-0.1,0.1-0.2c0.1-0.1,0.1-0.1,0.1-0.2c0-0.1,0.1-0.1,0.1-0.1l0,0c0.6-0.9,1.3-1.6,2.3-2.1
	c1.2-0.7,2.4-0.9,3.7-0.8h0.1c0,0,0,0,0.1,0c0.8,0.1,1.5,0.2,2.2,0.5c0.1,0.1,0.2,0.1,0.3,0.2l0,0c0.4,0.2,0.9,0.5,1.3,0.9
	c0.6,0.5,1.1,1.1,1.5,1.8C58.9,41,59,41.1,59,41c0.1,0,0.1-0.1,0.1-0.1c0.6-0.4,1.3-0.7,2-0.8c1.1-0.1,2.2,0.2,3.2,0.9
	c0.1,0.1,0.2,0.1,0.2,0.2c0,0,0,0,0.1,0.1c0,0,0.1,0.1,0.1,0.1c0.1,0.1,0.1,0.1,0.1,0.1l0,0c0.1,0,0.1-0.1,0.1-0.1
	c0.2-0.5,0.5-0.9,0.9-1.3c0.8-0.7,1.8-0.7,2.7-0.3c0,0,0.1,0,0.1,0.1c0.4,0.2,0.7,0.5,0.9,0.9c0.3,0.4,0.4,0.9,0.5,1.4
	c0,0.2,0.1,0.2,0.2,0.2l0.1-0.1c0.5-0.3,1-0.4,1.6-0.5c0.4,0,0.9,0.1,1.3,0.2c0.2,0.1,0.2,0.1,0.3-0.2c0.6-1.3,1.5-2.2,2.7-2.9
	c0.7-0.4,1.5-0.6,2.3-0.7c1.2-0.1,2.3,0.1,3.3,0.7c0.2,0.1,0.4,0.3,0.7,0.4c0,0,0.1,0,0.1,0.1c0.4,0.3,0.8,0.7,1.2,1.1
	c0.1,0.1,0.2,0.2,0.2,0.1l0,0c0,0,0.1-0.1,0.1-0.1c0.5-0.7,1.1-1.2,2-1.4c0.8-0.1,1.4,0,2,0.3l0,0c0.4,0.2,0.7,0.5,1,1
	c0.2,0.2,0.2,0.2,0.3,0.1c0,0,0.1-0.1,0.1-0.1c0.6-0.7,1.3-1.1,2.2-1.2c0.7-0.1,1.4,0.1,2,0.4c0.3,0.2,0.5,0.3,0.8,0.5
	c0.2,0.2,0.3,0.3,0.4,0.5c0.1,0.1,0.2,0.1,0.2,0l0,0c0.3-0.4,0.6-0.9,1-1.3c1.1-1,2.3-1.7,3.9-1.8c0.4-0.1,0.9-0.1,1.4-0.1
	c0.1,0,0.1,0,0.1,0c0.8,0.1,1.5,0.3,2.2,0.7c0.4,0.2,0.9,0.5,1.3,0.8c0.7,0.5,1.2,1.2,1.6,2c0.1,0.2,0.1,0.2,0.3,0.1
	c0,0,0.1,0,0.1-0.1c0.6-0.4,1.3-0.7,2-0.8C108.5,40.2,108.6,40.2,108.7,40.2z"/>
<path class="st1" d="M0.1,38c0.3-0.6,0.8-1.1,1.4-1.5c1.5-0.8,3.3-0.4,4.2,1c0.1,0.1,0.1,0.1,0.1,0.1c1.2-2.1,4.2-2,5.3,0.2
	c0.2-0.2,0.3-0.3,0.5-0.5c1-1,2.1-1.6,3.5-1.8c1.8-0.2,3.4,0.2,4.7,1.5c0.8,0.7,1.3,1.5,1.7,2.4c0.1,0.2,0.1,0.2,0.3,0.1
	c1.1-0.4,2.2-0.3,3.1,0.4c0-0.3,0.1-0.5,0.1-0.7c0.3-0.9,0.8-1.6,1.6-2c0.9-0.4,2.1-0.1,2.7,0.7c0.1,0.1,0.2,0.1,0.3,0
	c1.5-1.1,3.6-1.1,5,0.2c0.1,0.1,0.2,0.1,0.2-0.1c0.8-1.6,2.1-2.7,3.7-3.3c1.1-0.4,2.2-0.5,3.4-0.3c1.4,0.3,2.6,1,3.6,2
	c0.8,0.9,1.4,1.9,1.6,3.1c0,0.1,0.1,0.2,0.1,0.3c0.1-1.7,0.8-2.9,2.3-3.5c1.2-0.4,2.8-0.1,3.7,1.4c0.7-1,1.5-1.6,2.7-1.6
	c1.2,0.1,2,0.7,2.6,1.7c0.2-0.3,0.4-0.5,0.7-0.8c1-1,2.2-1.5,3.5-1.6c1.6-0.2,3,0.3,4.3,1.3c0.9,0.7,1.5,1.5,1.8,2.5
	c0.1,0.2,0.1,0.2,0.3,0.1c1.1-0.4,2.1-0.3,3,0.4c0,0,0.1,0,0.1,0.1c0-0.4,0.1-0.7,0.2-1.1c0.4-1,1-1.6,2.1-1.8
	c0.8-0.1,1.6,0.2,2.1,0.8c0.1,0.1,0.2,0.1,0.3,0.1c1.5-1.1,3.6-1.1,5,0.2c0.1,0.1,0.2,0.1,0.2-0.1c0.7-1.3,1.7-2.4,3-3
	c1.1-0.6,2.2-0.7,3.5-0.6c1.6,0.2,3,0.8,4.2,2.1c0.8,0.8,1.3,1.7,1.6,2.8c0,0.1,0.1,0.1,0.1,0.2c0.2-1.6,0.9-2.7,2.4-3.1
	c1.5-0.4,2.8,0.1,3.7,1.4c0.2-0.4,0.5-0.7,0.9-1c1.4-1.1,3.5-0.6,4.3,1c0.1,0.2,0.1,0.2,0.3,0c0.7-0.8,1.6-1.5,2.6-1.9
	c0,1.6,0,3.1,0,4.7c-0.8,0.1-1.6,0.4-2.2,0.9c-0.2,0.1-0.2,0.1-0.3-0.1c-0.8-1.6-2.1-2.7-3.7-3.2c-2.3-0.8-4.4-0.3-6.3,1.2
	c-0.6,0.5-1,1.1-1.4,1.7c0,0.1-0.1,0.1-0.1,0.1C93.3,39,90.3,39,88.9,41c-0.2-0.4-0.5-0.7-0.8-1c-1.4-1.1-3.4-0.7-4.3,0.9
	c-0.1,0.2-0.2,0.1-0.3,0c-1-1.2-2.2-2-3.8-2.2c-1.8-0.3-3.5,0.2-4.9,1.4c-0.7,0.6-1.2,1.3-1.6,2.2c-0.1,0.1-0.1,0.2-0.2,0.1
	c-1.1-0.5-2.1-0.4-3,0.3c-0.1,0-0.1,0.1-0.1,0.1c-0.3-1.7-1-2.7-2.3-2.9c-0.7-0.1-1.2,0.1-1.8,0.5c-0.5,0.4-0.9,1-1,1.6
	c-0.3-0.3-0.7-0.6-1-0.9c-1.4-0.8-3.3-0.7-4.6,0.3c-0.1,0-0.1,0.1-0.1,0.1c-0.1,0.1-0.2,0.1-0.2-0.1c-0.3-0.6-0.7-1.2-1.2-1.7
	c-1.1-1.1-2.3-1.7-3.9-1.9c-1.7-0.2-3.3,0.2-4.7,1.2c-0.7,0.5-1.2,1.1-1.7,1.8c-0.1-0.1-0.1-0.2-0.1-0.4c0,0.2,0.1,0.3,0,0.5
	c-0.1,0.1-0.1,0.2-0.2,0.3c-1.2-2.3-4.3-2.4-5.7-0.3c-0.6-1.1-1.5-1.6-2.7-1.6S36.7,40,36.2,41c-0.3-0.4-0.7-0.8-1.1-1.2
	c-1-0.8-2-1.2-3.3-1.3c-2-0.2-3.7,0.6-5,2.1c-0.4,0.4-0.8,1-1,1.6c-0.1,0.1-0.1,0.2-0.2,0.1c-1.1-0.5-2.1-0.4-3.1,0.3
	c0,0-0.1,0-0.1,0.1c-0.1-0.4-0.1-0.8-0.3-1.2c-0.4-1.1-1.4-1.8-2.6-1.7c-1,0.1-1.7,0.7-2.1,1.7c-0.1,0.1-0.1,0.2-0.2,0.4
	c-0.2-0.2-0.4-0.3-0.5-0.5c-1.5-1.2-3.6-1.2-5-0.1c-0.1,0-0.1,0.1-0.1,0.1c-0.1,0.1-0.2,0.1-0.2-0.1c-0.8-1.6-2.1-2.7-3.8-3.3
	c-2.3-0.7-4.3-0.3-6.2,1.1c-0.5,0.4-0.9,0.9-1.3,1.4C0.1,39.8,0.1,38.9,0.1,38z"/>
<path class="st0" d="M108.8,40.2c0.7,0.1,1.4,0.4,2,0.8c0,0.1,0.1,0.1,0.1,0.1c0.2,0.1,0.2,0.1,0.3-0.1c0.4-0.8,0.9-1.4,1.6-2
	c0.4-0.3,0.9-0.6,1.3-0.8c0.7-0.4,1.5-0.6,2.2-0.7c0.1,0,0.1,0,0.1,0c0.4,0,0.9,0,1.4,0.1c1.5,0.2,2.8,0.8,3.9,1.8
	c0.4,0.4,0.8,0.8,1,1.3l0,0c0.1,0.1,0.2,0.1,0.2,0c0.1-0.2,0.3-0.4,0.4-0.5c0.3-0.2,0.5-0.4,0.8-0.5c0.6-0.3,1.3-0.4,2-0.4
	c0.9,0.1,1.6,0.5,2.2,1.2c0,0.1,0.1,0.1,0.1,0.1c0.1,0.1,0.1,0.1,0.3-0.1c0.3-0.4,0.7-0.8,1-1l0,0c0.5-0.3,1.2-0.4,2-0.3
	c0.9,0.2,1.5,0.7,2,1.4c0.1,0.1,0.1,0.1,0.1,0.1l0,0c0,0.1,0.1,0,0.2-0.1c0.4-0.4,0.8-0.8,1.2-1.1c0-0.1,0.1-0.1,0.1-0.1
	c0.2-0.1,0.4-0.3,0.7-0.4c1-0.5,2.1-0.8,3.3-0.7c0.8,0.1,1.6,0.3,2.3,0.7c1.2,0.7,2.1,1.6,2.7,2.9c0.1,0.3,0.1,0.3,0.3,0.2
	c0.4-0.2,0.8-0.2,1.3-0.2c0.5,0.1,1.1,0.2,1.6,0.5l0.1,0.1c0.1,0.1,0.2,0,0.2-0.2c0.1-0.5,0.2-0.9,0.5-1.4c0.2-0.4,0.5-0.7,0.9-0.9
	c0-0.1,0.1-0.1,0.1-0.1c0.9-0.4,1.9-0.4,2.7,0.3c0.4,0.3,0.8,0.8,0.9,1.3c0.1,0.1,0.1,0.1,0.1,0.1l0,0c0,0,0.1,0,0.1-0.1
	c0-0.1,0.1-0.1,0.1-0.1c0.1-0.1,0.1-0.1,0.1-0.1c0.1-0.1,0.2-0.2,0.2-0.2c0.9-0.7,2-1,3.2-0.9c0.8,0.1,1.4,0.4,2,0.8
	c0.1,0,0.1,0.1,0.1,0.1c0.1,0.1,0.1,0,0.2-0.1c0.4-0.7,0.9-1.3,1.5-1.8c0.4-0.3,0.9-0.7,1.3-0.9l0,0c0.1-0.1,0.2-0.1,0.3-0.2
	c0.7-0.3,1.4-0.5,2.2-0.5c0.1,0,0.1,0,0.1,0h0.1c1.3-0.1,2.5,0.2,3.7,0.8c1,0.5,1.7,1.2,2.3,2.1l0,0c0,0.1,0.1,0.1,0.1,0.1
	c0.1,0.1,0.1,0.1,0.1,0.2c0.1,0.1,0.1,0.2,0.1,0.2c0.1,0.1,0.1,0,0.2-0.2c0.1-0.3,0.3-0.5,0.5-0.7c0-0.1,0.1-0.1,0.1-0.1l0.1-0.1
	c0.7-0.5,1.4-0.8,2.2-0.7c1,0.1,1.9,0.5,2.6,1.3c0,0.1,0.1,0.1,0.1,0.1c0.1,0,0.1-0.1,0.1-0.1c0.1-0.1,0.1-0.1,0.1-0.2
	c0.1-0.1,0.2-0.2,0.3-0.3c0.1,0,0.1-0.1,0.2-0.1c0.2-0.2,0.4-0.3,0.6-0.4l0,0c0.7-0.4,1.4-0.5,2.2-0.3c0.8,0.2,1.3,0.7,1.7,1.3
	c0.1,0.1,0.1,0.1,0.2,0.1c0.1,0,0.1,0,0.1-0.1c0.2-0.3,0.5-0.5,0.8-0.8c0.5-0.4,1.1-0.8,1.7-1c0.1,0,0.2-0.1,0.2-0.1
	c0.1,0,0.1,0,0.1,0c0.8-0.3,1.7-0.3,2.6-0.2c2.2,0.3,3.8,1.5,4.8,3.5c0.1,0.3,0.1,0.3,0.4,0.2c0.4-0.2,0.9-0.3,1.3-0.2
	c0.5,0,1,0.2,1.5,0.5c0.1,0.1,0.1,0.1,0.1,0.1c0.1,0,0.1-0.1,0.1-0.1c0-0.1,0.1-0.2,0.1-0.3v-0.1c0-0.1,0.1-0.2,0.1-0.3
	c0.1-0.2,0.2-0.4,0.3-0.7c0.1-0.1,0.1-0.2,0.2-0.3c0.1-0.1,0.1-0.2,0.2-0.2c0.1-0.1,0.2-0.2,0.2-0.2c0.1-0.1,0.1-0.1,0.2-0.2
	c0.2-0.2,0.5-0.3,0.8-0.4c1.1-0.3,2.2,0.1,2.8,1c0.2,0.3,0.3,0.5,0.4,0.9c0.4-0.5,1-0.9,1.7-1.1c0.1-0.1,0.2-0.1,0.3-0.1
	c0.1,0,0.1,0,0.1,0c0.1,0,0.2-0.1,0.2-0.1c0.1,0,0.1,0,0.2,0c0.1-0.1,0.3-0.1,0.4-0.1c0.1,0,0.2,0,0.3,0c0.1,0,0.1,0,0.1,0
	c0.5,0,0.9,0.1,1.4,0.3c0.4,0.2,0.7,0.3,1,0.5c0.1,0.1,0.2,0.1,0.2-0.1c0.1-0.1,0.1-0.1,0.1-0.2c0.1-0.3,0.3-0.5,0.5-0.8
	c0.1-0.1,0.1-0.1,0.2-0.2c0.2-0.2,0.3-0.3,0.5-0.5c0.5-0.5,1.1-0.9,1.8-1.2c1.1-0.5,2.3-0.7,3.5-0.6c1.5,0.2,2.7,0.7,3.8,1.7
	c0.4,0.3,0.8,0.7,1,1.1V43H108.7v-2.8C108.7,40.2,108.8,40.2,108.8,40.2z"/>
<path class="st1" d="M217.3,40.6c-0.4-0.5-0.8-1-1.3-1.4c-1.9-1.5-4-1.8-6.2-1.1c-1.7,0.6-3,1.7-3.8,3.3c-0.1,0.2-0.1,0.2-0.2,0.1
	c-0.1,0-0.1-0.1-0.1-0.1c-1.5-1.2-3.6-1.2-5,0.1c-0.2,0.2-0.4,0.3-0.5,0.5c-0.1-0.2-0.1-0.3-0.2-0.4c-0.4-1-1.1-1.6-2.1-1.7
	c-1.2-0.1-2.2,0.6-2.6,1.7c-0.2,0.4-0.2,0.8-0.3,1.2c0-0.1-0.1-0.1-0.1-0.1c-1-0.7-2-0.8-3.1-0.3c-0.1,0.1-0.2,0-0.2-0.1
	c-0.2-0.6-0.5-1.2-1-1.6c-1.4-1.6-3-2.3-5-2.1c-1.2,0.1-2.3,0.5-3.3,1.3c-0.4,0.3-0.8,0.7-1.1,1.2c-0.5-1.1-1.4-1.7-2.6-1.7
	s-2.1,0.6-2.7,1.6c-1.4-2.1-4.5-2-5.7,0.3c-0.1-0.1-0.1-0.2-0.2-0.3c-0.1-0.2,0-0.3,0-0.5c0,0.2,0,0.3-0.1,0.4
	c-0.5-0.7-1-1.3-1.7-1.8c-1.4-1-3-1.5-4.7-1.2c-1.5,0.2-2.8,0.8-3.9,1.9c-0.5,0.4-0.9,1.1-1.2,1.7c-0.1,0.1-0.1,0.2-0.2,0.1
	c-0.1,0-0.1-0.1-0.1-0.1c-1.3-1-3.1-1.1-4.6-0.3c-0.4,0.3-0.7,0.6-1,0.9c-0.2-0.7-0.5-1.2-1-1.6c-0.5-0.4-1.1-0.6-1.8-0.5
	c-1.2,0.2-2,1.1-2.3,2.9c-0.1,0-0.1-0.1-0.1-0.1c-1-0.7-2-0.8-3-0.3c-0.1,0.1-0.2,0-0.2-0.1c-0.4-0.9-0.9-1.6-1.6-2.2
	c-1.4-1.2-3-1.7-4.9-1.4c-1.6,0.2-2.8,1-3.8,2.2c-0.1,0.1-0.2,0.2-0.3,0c-0.9-1.6-2.9-2-4.3-0.9c-0.3,0.3-0.6,0.6-0.8,1
	c-1.4-2-4.3-2-5.6,0.2c-0.1,0-0.1-0.1-0.1-0.1c-0.4-0.7-0.8-1.2-1.4-1.7c-1.9-1.6-4-2-6.3-1.2c-1.7,0.5-2.9,1.6-3.7,3.2
	c-0.1,0.2-0.1,0.2-0.3,0.1c-0.7-0.5-1.4-0.8-2.2-0.9c0-1.6,0-3.1,0-4.7c1,0.4,1.9,1.1,2.6,1.9c0.2,0.2,0.2,0.2,0.3,0
	c0.8-1.6,2.9-2,4.3-1c0.4,0.2,0.7,0.6,0.9,1c1-1.3,2.2-1.8,3.7-1.4c1.5,0.4,2.2,1.5,2.4,3.1c0-0.1,0.1-0.1,0.1-0.2
	c0.3-1.1,0.8-2,1.6-2.8c1.1-1.2,2.5-1.9,4.2-2.1c1.2-0.1,2.4,0.1,3.5,0.6c1.4,0.7,2.3,1.7,3,3c0.1,0.1,0.1,0.2,0.2,0.1
	c1.4-1.2,3.5-1.3,5-0.2c0.1,0.1,0.2,0.1,0.3-0.1c0.5-0.7,1.3-1,2.1-0.8c1,0.2,1.7,0.8,2.1,1.8c0.2,0.3,0.2,0.7,0.2,1.1
	c0.1-0.1,0.1-0.1,0.1-0.1c0.9-0.7,2-0.8,3-0.4c0.2,0.1,0.2,0.1,0.3-0.1c0.4-1,1-1.8,1.8-2.5c1.3-1,2.7-1.5,4.3-1.3
	c1.3,0.2,2.5,0.7,3.5,1.6c0.3,0.3,0.5,0.5,0.7,0.8c0.6-1.1,1.4-1.7,2.6-1.7c1.1,0,2,0.6,2.7,1.6c1-1.5,2.5-1.8,3.7-1.4
	c1.6,0.6,2.3,1.7,2.3,3.5c0-0.1,0.1-0.2,0.1-0.3c0.3-1.2,0.8-2.2,1.6-3.1c1-1.1,2.2-1.7,3.6-2c1.1-0.2,2.3-0.1,3.4,0.3
	c1.6,0.6,2.9,1.7,3.7,3.3c0.1,0.1,0.1,0.2,0.2,0.1c1.4-1.2,3.5-1.3,5-0.2c0.1,0.1,0.2,0.1,0.3,0c0.7-0.8,1.8-1.1,2.7-0.7
	c0.9,0.4,1.4,1.1,1.6,2c0.1,0.2,0.1,0.4,0.1,0.7c1-0.8,2.1-0.9,3.1-0.4c0.2,0.1,0.2,0.1,0.3-0.1c0.4-0.9,0.9-1.7,1.7-2.4
	c1.4-1.2,2.9-1.7,4.7-1.5c1.4,0.2,2.5,0.8,3.5,1.8c0.2,0.2,0.3,0.3,0.5,0.5c1.1-2.2,4-2.3,5.3-0.2c0.1,0,0.1-0.1,0.1-0.1
	c1-1.4,2.8-1.8,4.2-1c0.7,0.3,1.1,0.8,1.4,1.5C217.2,38.9,217.2,39.8,217.3,40.6z"/>
<path class="st2" d="M179.7,47.3c0.2-0.2,0.3-0.3,0.5-0.5c0.1,0.2,0.2,0.3,0.3,0.5C180.1,47.3,179.9,47.3,179.7,47.3z"/>
</svg>
