<?xml version="1.0" encoding="utf-8"?>
<!-- Generator: Adobe Illustrator 19.0.0, SVG Export Plug-In . SVG Version: 6.00 Build 0)  -->
<svg version="1.1" id="Layer_1" xmlns="http://www.w3.org/2000/svg" xmlns:xlink="http://www.w3.org/1999/xlink" x="0px" y="0px"
	 viewBox="0 45.5 200 19.5" style="enable-background:new 0 45.5 200 19.5;" xml:space="preserve">
<style type="text/css">
	.st0{fill:#FEFEFE;}
	.st1{opacity:0.5;fill:#FFFFFF;}
	.st2{fill:#86C2E8;}
	.st3{fill:#1B8DD5;}
</style>
<path class="st0" d="M199.7,60v5.1H0v-4.5c0.4-0.8,1.1-1.5,1.8-2.1c2-1.8,4.3-2.8,7-3.1c2.2-0.2,4.4,0.1,6.4,1.1
	c1.2,0.6,2.3,1.3,3.3,2.2c0.3,0.3,0.6,0.6,0.9,0.9c0.1,0.1,0.2,0.2,0.3,0.3c0.4,0.4,0.7,0.9,0.9,1.4c0.1,0.1,0.1,0.2,0.2,0.3
	c0.1,0.2,0.2,0.2,0.4,0.1c0.5-0.4,1.1-0.7,1.8-1c0.8-0.3,1.6-0.5,2.5-0.5c0.1,0,0.1,0,0.2,0c0.2,0,0.4,0,0.6,0c0.3,0,0.6,0,0.8,0.1
	c0.1,0,0.2,0,0.3,0c0.1,0,0.3,0.1,0.4,0.1c0.1,0,0.1,0,0.2,0c0.2,0,0.3,0.1,0.5,0.2c1.2,0.4,2.3,1.1,3.1,2c0.2-0.6,0.5-1.1,0.8-1.6
	c1.2-1.7,3.2-2.5,5.2-1.9c0.5,0.1,1,0.4,1.4,0.7c0.2,0.1,0.3,0.2,0.4,0.3c0.1,0.1,0.2,0.2,0.4,0.4c0.1,0.1,0.2,0.3,0.3,0.4
	c0.1,0.2,0.2,0.3,0.3,0.5c0.2,0.4,0.4,0.8,0.5,1.2c0,0.2,0.1,0.3,0.1,0.5c0,0,0,0.1,0,0.1c0,0.2,0.1,0.3,0.1,0.5
	c0,0.1,0,0.2,0.1,0.2c0,0,0.1,0,0.2-0.1c0.9-0.6,1.8-0.9,2.8-0.9c0.8-0.1,1.6,0.1,2.4,0.4c0.5,0.2,0.5,0.2,0.7-0.3
	c1.8-3.7,4.8-5.9,8.8-6.4c1.7-0.2,3.3-0.1,4.8,0.4c0.1,0,0.1,0,0.2,0c0.1,0,0.3,0.1,0.4,0.1c1.1,0.4,2.2,1,3.2,1.8
	c0.6,0.5,1.1,1,1.5,1.5c0.1,0.1,0.1,0.1,0.2,0.1c0.1,0,0.2,0,0.3-0.1c0.8-1.2,1.8-2,3.2-2.4c1.5-0.4,2.9-0.2,4.1,0.5c0,0,0,0,0,0
	c0.4,0.2,0.8,0.5,1.1,0.8c0.1,0.1,0.2,0.2,0.3,0.2c0.2,0.2,0.3,0.4,0.5,0.6c0.1,0.1,0.1,0.2,0.2,0.3c0,0.1,0.1,0.2,0.2,0.2
	c0,0,0.1,0,0.1-0.2c1.2-1.5,2.8-2.3,4.7-2.4c1.5-0.1,2.8,0.4,4,1.3c0,0,0.1,0.1,0.1,0.1c0.1,0.1,0.2,0.1,0.2,0.2
	c0.4,0.3,0.7,0.7,0.9,1.2c0.1,0.3,0.2,0.4,0.3,0.3c0,0,0.1-0.1,0.2-0.3c0.1-0.1,0.1-0.2,0.2-0.3c0-0.1,0.1-0.1,0.1-0.2v0
	c1.1-1.6,2.4-2.9,4.2-3.8c2.2-1.2,4.5-1.7,6.8-1.5h0.1c0,0,0,0,0.1,0c1.4,0.1,2.8,0.4,4,1c0.2,0.1,0.4,0.2,0.6,0.3c0,0,0,0,0,0
	c0.8,0.4,1.6,1,2.4,1.6c1.1,1,2.1,2.1,2.8,3.4c0.1,0.2,0.2,0.3,0.3,0.2c0.1,0,0.1-0.1,0.2-0.1c1.1-0.8,2.3-1.3,3.7-1.5
	c2.1-0.2,4.1,0.3,5.8,1.6c0.1,0.1,0.3,0.2,0.4,0.4c0,0,0,0,0.1,0.1c0,0,0.1,0.1,0.1,0.2c0.1,0.1,0.2,0.1,0.2,0.1h0
	c0.1,0,0.1-0.1,0.2-0.2c0.3-0.9,0.9-1.7,1.7-2.3c1.5-1.2,3.4-1.3,5-0.5c0,0,0.1,0,0.1,0.1c0.7,0.4,1.3,0.9,1.7,1.6
	c0.5,0.8,0.8,1.6,0.9,2.5c0,0.3,0.1,0.4,0.3,0.3c0,0,0.1-0.1,0.1-0.1c0.9-0.6,1.9-0.8,2.9-0.9c0.8,0,1.6,0.1,2.3,0.4
	c0.4,0.2,0.4,0.2,0.6-0.3c1.1-2.3,2.8-4.1,5-5.3c1.3-0.7,2.7-1.1,4.2-1.2c2.2-0.2,4.2,0.2,6.1,1.2c0.4,0.2,0.8,0.5,1.2,0.7
	c0,0,0.1,0,0.1,0.1c0.8,0.6,1.5,1.2,2.2,2c0.2,0.2,0.3,0.3,0.3,0.2h0c0,0,0.1-0.1,0.2-0.2c0.9-1.3,2.1-2.2,3.7-2.5
	c1.4-0.2,2.6,0,3.6,0.6l0,0c0.7,0.4,1.3,1,1.9,1.8c0.3,0.3,0.3,0.4,0.5,0.2c0,0,0.1-0.1,0.1-0.2c1.1-1.2,2.4-2,4-2.2
	c1.3-0.1,2.5,0.1,3.6,0.7c0.5,0.3,0.9,0.6,1.4,1c0.3,0.3,0.6,0.6,0.8,1c0.1,0.2,0.3,0.2,0.4,0c0,0,0,0,0,0c0.5-0.8,1.1-1.6,1.9-2.3
	c2-1.9,4.3-3.1,7.1-3.4c0.8-0.1,1.7-0.1,2.5-0.1c0.1,0,0.1,0,0.2,0c1.4,0.1,2.8,0.5,4.1,1.2c0.8,0.4,1.6,0.9,2.4,1.5
	c1.3,1,2.2,2.2,3,3.6c0.2,0.4,0.2,0.4,0.5,0.2c0,0,0.1,0,0.1-0.1c1.1-0.8,2.3-1.3,3.6-1.5C199.4,60,199.6,59.9,199.7,60z"/>
<path class="st1" d="M0.1,55.8c0.6-1.1,1.4-2,2.6-2.6c2.7-1.4,6-0.7,7.8,1.8c0.1,0.1,0.1,0.2,0.2,0.2c2.3-3.8,7.7-3.6,9.7,0.3
	c0.3-0.3,0.6-0.6,0.9-0.9c1.8-1.8,3.9-2.9,6.5-3.2c3.3-0.4,6.2,0.4,8.7,2.6c1.4,1.2,2.4,2.6,3.1,4.2c0.1,0.3,0.2,0.3,0.5,0.2
	c2-0.8,4-0.6,5.8,0.8c0-0.5,0.1-0.9,0.2-1.3c0.5-1.6,1.4-2.8,3-3.5c1.7-0.7,3.8-0.2,5,1.2c0.2,0.2,0.3,0.2,0.5,0
	c2.7-2,6.6-1.9,9.2,0.3c0.2,0.2,0.3,0.1,0.4-0.1c1.5-2.9,3.8-4.8,6.8-5.9c2-0.7,4.1-0.9,6.2-0.5c2.6,0.5,4.8,1.7,6.7,3.6
	c1.5,1.6,2.5,3.4,3,5.5c0,0.1,0.1,0.3,0.1,0.5c0.1-3.1,1.4-5.2,4.3-6.2c2.2-0.7,5.1-0.2,6.9,2.5c1.2-1.8,2.8-2.8,4.9-2.8
	c2.2,0.1,3.7,1.2,4.8,3.1c0.4-0.5,0.8-0.9,1.3-1.4c1.8-1.7,4-2.6,6.4-2.9c3-0.3,5.6,0.5,8,2.3c1.6,1.2,2.7,2.7,3.4,4.5
	c0.1,0.3,0.2,0.3,0.5,0.2c2-0.8,3.9-0.6,5.6,0.7c0,0,0.1,0,0.2,0.1c0-0.7,0.1-1.3,0.4-1.9c0.7-1.8,1.9-2.9,3.8-3.2
	c1.5-0.2,2.9,0.3,3.9,1.5c0.2,0.2,0.3,0.2,0.5,0.1c2.7-2,6.6-1.9,9.2,0.3c0.2,0.2,0.3,0.1,0.4-0.1c1.3-2.4,3.1-4.2,5.6-5.4
	c2-1,4.1-1.3,6.4-1.1c3,0.3,5.6,1.5,7.7,3.7c1.4,1.4,2.4,3.1,2.9,5c0,0.1,0.1,0.2,0.1,0.3c0.3-2.8,1.7-4.8,4.4-5.5
	c2.8-0.8,5.1,0.2,6.9,2.5c0.4-0.7,0.9-1.3,1.6-1.7c2.6-1.9,6.4-1.1,7.9,1.7c0.2,0.3,0.2,0.3,0.5,0c1.3-1.5,2.9-2.7,4.8-3.4
	c0,2.8,0,5.6,0,8.4c-1.5,0.1-2.9,0.7-4.1,1.6c-0.3,0.2-0.4,0.2-0.5-0.1c-1.5-2.9-3.8-4.9-6.9-5.8c-4.3-1.4-8.2-0.6-11.7,2.2
	c-1.1,0.9-1.9,1.9-2.6,3.1c0,0.1-0.1,0.2-0.2,0.2c-2.4-4-7.9-4-10.4-0.4c-0.4-0.7-0.9-1.3-1.5-1.8c-2.6-2-6.3-1.2-8,1.6
	c-0.2,0.3-0.3,0.2-0.5,0c-1.8-2.2-4.1-3.6-7-4c-3.4-0.5-6.4,0.4-9,2.5c-1.3,1.1-2.3,2.4-3,4c-0.1,0.2-0.2,0.3-0.4,0.2
	c-2-0.9-3.8-0.7-5.6,0.5c-0.1,0-0.1,0.1-0.2,0.1c-0.5-3.1-1.9-4.8-4.2-5.1c-1.2-0.2-2.3,0.1-3.3,0.9c-1,0.7-1.6,1.7-1.9,2.9
	c-0.6-0.6-1.2-1.1-1.9-1.6c-2.6-1.5-6-1.3-8.4,0.5c-0.1,0-0.1,0.1-0.2,0.1c-0.2,0.2-0.3,0.1-0.4-0.1c-0.6-1.1-1.3-2.2-2.3-3
	c-2-1.9-4.3-3.1-7.1-3.4c-3.1-0.4-6,0.4-8.6,2.2c-1.2,0.9-2.2,1.9-3.1,3.2c-0.2-0.2-0.2-0.4-0.2-0.7c0,0.3,0.1,0.6,0,0.9
	c-0.1,0.2-0.2,0.4-0.3,0.6c-2.2-4.1-7.9-4.3-10.5-0.6c-1.1-1.9-2.7-2.9-4.9-2.9c-2.2,0-3.8,1.1-4.8,3c-0.6-0.8-1.3-1.5-2.1-2.1
	c-1.8-1.4-3.7-2.2-6-2.3c-3.7-0.3-6.8,1-9.3,3.8c-0.8,0.8-1.4,1.8-1.8,2.9c-0.1,0.2-0.2,0.3-0.4,0.2c-2-0.9-3.9-0.7-5.7,0.5
	c0,0-0.1,0-0.1,0.1c-0.1-0.7-0.2-1.4-0.5-2.1c-0.8-2-2.6-3.2-4.8-3c-1.9,0.2-3.1,1.3-3.9,3c-0.1,0.2-0.2,0.4-0.3,0.7
	c-0.3-0.3-0.7-0.6-1-0.9c-2.7-2.2-6.6-2.2-9.3-0.1c-0.1,0-0.1,0.1-0.2,0.1c-0.2,0.2-0.3,0.2-0.4-0.1c-1.5-2.9-3.9-4.9-7-5.9
	c-4.2-1.3-8-0.6-11.5,2c-0.9,0.7-1.6,1.6-2.4,2.5C0.1,58.9,0.1,57.3,0.1,55.8z"/>
<path class="st2" d="M162.3,65.1c0.3-0.3,0.6-0.6,0.9-0.9c0.2,0.3,0.4,0.6,0.5,0.9C163.2,65.1,162.8,65.1,162.3,65.1z"/>
<path class="st2" d="M74.9,65.1c0.2-0.3,0.5-0.5,0.7-0.8c0.1-0.2,0.2-0.1,0.3,0.1c0.1,0.2,0.3,0.5,0.4,0.7
	C75.9,65.1,75.4,65.1,74.9,65.1z"/>
<path class="st3" d="M87.1,58.3c-0.1-0.3,0-0.6-0.1-1c0.1,0.2,0.2,0.4,0.2,0.7C87.2,58.2,87.2,58.2,87.1,58.3z"/>
</svg>
